<?xml version="1.0" encoding="UTF-8"?>
<svg width="208px" height="133px" viewBox="0 0 208 133" version="1.1" xmlns="http://www.w3.org/2000/svg" xmlns:xlink="http://www.w3.org/1999/xlink">
    <!-- Generator: Sketch 51.3 (57544) - http://www.bohemiancoding.com/sketch -->
    <title>Fill 6</title>
    <desc>Created with Sketch.</desc>
    <defs></defs>
    <g id="Page-1" stroke="none" stroke-width="1" fill="none" fill-rule="evenodd">
        <g id="106805-ON3WU6-50" transform="translate(-47.000000, -91.000000)" fill="#FFFFFF">
            <path d="M243.334,155.934 C243.588,160.061 243.334,170.12 241.094,172.587 C238.855,175.054 203.025,176.904 199.542,175.465 C196.058,174.026 207.255,159.84 210.49,157.578 C213.724,155.317 243.169,153.254 243.334,155.934 Z M208.997,204.471 C208.468,204.471 207.354,204.471 205.797,204.471 L209.463,197.327 C214.282,197.563 217.215,197.865 216.959,198.25 C215.964,199.743 212.729,204.471 208.997,204.471 Z M129.042,204.471 L128.192,196.599 C136.843,196.53 145.088,196.508 151.022,196.508 C156.956,196.508 165.201,196.53 173.852,196.599 L173.002,204.471 C165.475,204.471 157.785,204.471 151.022,204.471 C144.259,204.471 136.569,204.471 129.042,204.471 Z M85.085,198.25 C84.829,197.865 87.763,197.563 92.581,197.327 L96.247,204.471 C94.69,204.471 93.576,204.471 93.047,204.471 C89.315,204.471 86.081,199.743 85.085,198.25 Z M58.711,155.934 C58.876,153.254 88.32,155.317 91.555,157.578 C94.789,159.84 105.986,174.026 102.503,175.465 C99.019,176.904 63.189,175.054 60.95,172.587 C58.711,170.12 58.456,160.061 58.711,155.934 Z M194.077,196.86 C198.251,196.941 202.129,197.04 205.472,197.16 L202.557,204.471 C199.713,204.471 196.121,204.471 192.063,204.471 L194.077,196.86 Z M190.286,196.792 L189.015,204.471 C184.961,204.471 180.549,204.471 176.024,204.471 L177.631,196.632 C181.893,196.672 186.181,196.725 190.286,196.792 Z M122.408,177.598 C122.177,177.468 121.918,177.272 121.643,177.038 L151.75,177.038 L151.75,175.048 L119.737,175.048 C119.015,174.191 118.241,173.179 117.445,172.062 L151.75,172.062 L151.75,170.072 L116.072,170.072 C115.43,169.107 114.796,168.104 114.175,167.086 L151.75,167.086 L151.75,165.095 L112.994,165.095 C112.411,164.083 111.849,163.077 111.346,162.109 L151.75,162.109 L151.75,160.119 L110.358,160.119 C109.84,159.022 109.407,158.006 109.103,157.133 L151.75,157.133 L151.75,155.142 L108.625,155.142 C108.591,154.748 108.603,154.41 108.723,154.209 C110.216,151.721 129.624,152.716 151.022,152.716 C172.42,152.716 191.828,151.721 193.321,154.209 C193.441,154.41 193.453,154.748 193.419,155.142 L151.209,155.142 L151.209,157.133 L192.941,157.133 C192.637,158.006 192.204,159.022 191.686,160.119 L151.209,160.119 L151.209,162.109 L190.699,162.109 C190.195,163.077 189.633,164.083 189.05,165.095 L151.209,165.095 L151.209,167.086 L187.869,167.086 C187.248,168.104 186.614,169.107 185.972,170.072 L151.209,170.072 L151.209,172.062 L184.599,172.062 C183.803,173.179 183.029,174.191 182.307,175.048 L151.209,175.048 L151.209,177.038 L180.401,177.038 C180.126,177.272 179.867,177.468 179.636,177.598 C175.655,179.838 157.491,180.086 151.022,180.086 C144.553,180.086 126.389,179.838 122.408,177.598 Z M111.758,196.792 C115.864,196.725 120.151,196.672 124.413,196.632 L126.02,204.471 C121.495,204.471 117.083,204.471 113.029,204.471 L111.758,196.792 Z M107.967,196.86 L109.981,204.471 C105.923,204.471 102.331,204.471 99.487,204.471 L96.572,197.16 C99.916,197.04 103.793,196.941 107.967,196.86 Z M95.038,98.474 L149.373,98.474 L149.373,100.796 C149.373,100.796 142.776,100.796 140.797,100.796 C138.818,100.796 139.038,107.432 140.797,107.432 C142.556,107.432 151.022,107.432 151.022,107.432 C151.022,107.432 159.488,107.432 161.247,107.432 C163.006,107.432 163.226,100.796 161.247,100.796 C159.268,100.796 152.671,100.796 152.671,100.796 L152.671,98.474 L207.006,98.474 L220.691,126.839 L81.353,126.839 L95.038,98.474 Z M233.298,114.067 C232.137,115.228 232.303,124.185 231.473,124.019 C231.005,123.926 229.861,124.411 228.944,124.853 C224.889,117.346 211.485,91.756 211.485,91.756 L90.559,91.756 C90.559,91.756 77.155,117.346 73.1,124.853 C72.183,124.411 71.039,123.926 70.571,124.019 C69.742,124.185 69.907,115.228 68.746,114.067 C67.585,112.906 52.324,113.901 50.334,115.725 C48.343,117.55 47.016,125.346 48.841,127.503 C50.665,129.659 66.756,126.673 67.917,127.503 C68.452,127.885 68.946,129.041 69.329,130.177 C64.123,136.239 53.983,147.082 53.983,151.224 C53.983,156.449 53.983,223.132 53.983,223.132 L86.578,223.132 L86.578,211.189 C86.578,211.189 124.647,211.189 151.022,211.189 C177.397,211.189 215.466,211.189 215.466,211.189 L215.466,223.132 L248.061,223.132 C248.061,223.132 248.061,156.449 248.061,151.224 C248.061,147.082 237.921,136.239 232.715,130.177 C233.099,129.041 233.593,127.885 234.127,127.503 C235.288,126.673 251.379,129.659 253.203,127.503 C255.028,125.346 253.701,117.55 251.71,115.725 C249.72,113.901 234.459,112.906 233.298,114.067 Z" id="Fill-6"></path>
        </g>
    </g>
</svg>