<?xml version="1.0" encoding="UTF-8"?>
<svg width="156px" height="111px" viewBox="0 0 156 111" version="1.1" xmlns="http://www.w3.org/2000/svg" xmlns:xlink="http://www.w3.org/1999/xlink">
    <!-- Generator: Sketch 51.3 (57544) - http://www.bohemiancoding.com/sketch -->
    <title>Shape</title>
    <desc>Created with Sketch.</desc>
    <defs></defs>
    <g id="Page-1" stroke="none" stroke-width="1" fill="none" fill-rule="evenodd">
        <g id="Desktop-HD" transform="translate(-141.000000, -118.000000)" fill="#A5864B">
            <g id="йф" transform="translate(141.000000, 118.000000)">
                <path d="M155.877566,73.9112937 C156.213579,79.1625149 156.104411,85.7244067 152.27074,93.4930832 C149.674789,98.7556892 145.965882,103.39071 140.065092,106.669521 C136.178963,108.828357 132.153892,110.336838 127.767288,110.805036 C127.554622,110.829229 127.340537,110.849152 127.125035,110.867652 C126.230417,110.944499 125.330128,110.997154 124.412826,110.998577 C124.397231,110.998577 124.381635,111 124.36604,111 C124.363204,111 124.357533,111 124.35328,111 C124.349026,111 124.347608,111 124.343355,111 C124.337684,111 124.332013,111 124.326342,111 C116.573933,110.994308 109.906125,109.683637 104.32717,107.063719 C98.7368726,104.440954 94.168793,101.053988 90.6257665,96.9099347 C87.0784868,92.7644585 84.4910426,88.2062847 82.8535094,83.2325671 C81.2173939,78.2588495 80.400754,73.4245952 80.400754,68.726958 C80.400754,58.6443288 81.899345,49.8709471 84.8993625,42.4096591 C87.8965445,34.9497942 91.955642,28.3907486 97.0667305,22.7239836 C102.179237,17.0600649 124.32776,0 155.205539,0 L155.205539,9.39669739 C146.802371,12.6271234 140.884567,17.7431506 137.457799,24.7405095 C134.026777,31.7392915 132.312683,35.634303 132.312683,44.4432621 L132.312683,45.7567789 C148.31514,50.6436877 154.889375,58.5005962 155.877566,73.9112937 Z M59.6643378,106.669521 C55.7782092,108.828357 51.7545561,110.336838 47.3665342,110.805036 C47.1538676,110.829229 46.9397832,110.849152 46.7256987,110.867652 C45.831081,110.944499 44.9307922,110.997154 44.0120723,110.998577 C43.9978945,110.998577 43.9808812,111 43.9667034,111 C43.96245,111 43.9567789,111 43.9525256,111 C43.9482723,111 43.9468545,111 43.9426012,111 C43.93693,111 43.9312589,111 43.9255878,111 C36.1731795,110.994308 29.5053711,109.683637 23.926416,107.063719 C18.3361186,104.440954 13.768039,101.053988 10.2250126,96.9099347 C6.67915061,92.7644585 4.09028858,88.2062847 2.45417315,83.2325671 C0.816639939,78.2588495 0,73.4245952 0,68.726958 C0,58.6443288 1.498591,49.8709471 4.50002633,42.4096591 C7.49579055,34.9497942 11.554888,28.3907486 16.6659765,22.7239836 C21.7784828,17.0600649 43.9270056,0 74.8047855,0 L74.8047855,9.39669739 C66.4016173,12.6271234 60.4838132,17.7431506 57.0570446,24.7405095 C53.6260227,31.7392915 51.9119294,35.634303 51.9119294,44.4432621 L51.9119294,45.7567789 C67.914386,50.6436877 74.4886211,58.5005962 75.4768121,73.9112937 C75.8142432,79.1625149 75.7036566,85.7244067 71.8699857,93.4930832 C69.2740348,98.7556892 65.5651284,103.39071 59.6643378,106.669521 Z" id="Shape"></path>
            </g>
        </g>
    </g>
</svg>