<?xml version="1.0" encoding="UTF-8"?>
<svg width="52px" height="41px" viewBox="0 0 52 41" version="1.1" xmlns="http://www.w3.org/2000/svg" xmlns:xlink="http://www.w3.org/1999/xlink">
    <!-- Generator: Sketch 51.3 (57544) - http://www.bohemiancoding.com/sketch -->
    <title>marker</title>
    <desc>Created with Sketch.</desc>
    <defs></defs>
    <g id="Page-1" stroke="none" stroke-width="1" fill="none" fill-rule="evenodd">
        <g id="Desktop-HD" transform="translate(-1123.000000, -532.000000)">
            <g id="marker" transform="translate(1123.000000, 532.000000)">
                <path d="M13.0346679,41 C12.0716035,36.3926943 10.373582,32.558439 8.31690299,29.0050277 C6.79136796,26.3692041 5.02411002,23.9362668 3.3889421,21.3800975 C2.84309084,20.5268388 2.37201807,19.6253994 1.84750716,18.7398438 C0.798734046,16.9691421 -0.0515928531,14.9161201 0.0024404227,12.2530107 C0.0552318455,9.65100892 0.827427713,7.56377653 1.94094144,5.85720947 C3.77234407,3.05033696 6.84001079,0.749009306 10.9560769,0.144224666 C14.3214619,-0.350255464 17.4767486,0.485160381 19.7143113,1.7602434 C21.5426586,2.80222563 22.9587109,4.19407665 24.0349093,5.83442767 C25.1583101,7.54651468 25.9319221,9.56917646 25.9967621,12.2074692 C26.0300539,13.5591555 25.8029883,14.8109 25.4830101,15.8492016 C25.1593047,16.9001657 24.638596,17.778677 24.175273,18.7170605 C23.2707377,20.5488211 22.1369018,22.2272312 20.9988445,23.906488 C17.6093367,28.9086694 14.4279636,34.0098748 13.0346679,41 Z" id="svg_2" fill="#A5864B"></path>
                <path d="M12,41 C15.2247215,38.1215034 17.1778744,35.3801804 18.5948233,32.6531457 C19.6457671,30.6300755 20.323282,28.6243924 21.2154424,26.6027524 C21.5134025,25.9278414 21.9140297,25.2555496 22.2573201,24.5713505 C22.9439011,23.2031876 24.0377256,21.7578679 26.3991016,20.329931 C28.7063264,18.9346218 31.1515016,18.0971497 33.5437519,17.5984442 C37.4779918,16.7782139 41.9797242,16.7101751 45.8588288,17.969789 C49.0307706,18.9996358 50.874154,20.6719114 51.5871943,22.2293995 C52.1698818,23.5020647 52.1122969,24.8056874 51.56171,26.1135952 C50.9868652,27.478662 49.8570247,28.8777824 47.6139982,30.3381056 C46.4647932,31.0863681 45.1906253,31.6798344 44.0264797,32.1211207 C42.8481172,32.5678869 41.6594684,32.8448533 40.4654235,33.1765949 C38.1346765,33.8241183 35.7505142,34.299464 33.3621822,34.7740916 C26.2484062,36.187262 19.2176934,37.7347511 12,41 Z" id="svg_3" fill="#000000" opacity="0.25"></path>
                <circle id="svg_4" fill="#FFFFFF" cx="12.5" cy="12.5" r="4.5"></circle>
            </g>
        </g>
    </g>
</svg>